<?xml version="1.0" encoding="UTF-8" standalone="no"?>
<!DOCTYPE svg PUBLIC "-//W3C//DTD SVG 1.1//EN"
 "http://www.w3.org/Graphics/SVG/1.1/DTD/svg11.dtd">
<!-- Generated by graphviz version 2.40.1 (20161225.0304)
 -->
<!-- Title: dependencies Pages: 1 -->
<svg width="575pt" height="349pt"
 viewBox="0.00 0.00 575.00 349.00" xmlns="http://www.w3.org/2000/svg" xmlns:xlink="http://www.w3.org/1999/xlink">
<g id="graph0" class="graph" transform="scale(1 1) rotate(0) translate(4 345)">
<title>dependencies</title>
<polygon fill="#ffffff" stroke="transparent" points="-4,4 -4,-345 571,-345 571,4 -4,4"/>
<text text-anchor="start" x="262.5091" y="-42.4" font-family="sans-serif" font-weight="bold" font-size="14.00" fill="#000000">Legend</text>
<polygon fill="#ffffb3" stroke="transparent" points="49.5,-10 49.5,-30 69.5,-30 69.5,-10 49.5,-10"/>
<text text-anchor="start" x="73.129" y="-15.4" font-family="sans-serif" font-size="14.00" fill="#000000"> &#160;Declarations</text>
<polygon fill="#8dd3c7" stroke="transparent" points="162.5,-10 162.5,-30 182.5,-30 182.5,-10 162.5,-10"/>
<text text-anchor="start" x="186.2251" y="-15.4" font-family="sans-serif" font-size="14.00" fill="#000000"> &#160;Module</text>
<polygon fill="#80b1d3" stroke="transparent" points="248.5,-10 248.5,-30 268.5,-30 268.5,-10 248.5,-10"/>
<text text-anchor="start" x="272.2812" y="-15.4" font-family="sans-serif" font-size="14.00" fill="#000000"> &#160;Bootstrap</text>
<polygon fill="#fdb462" stroke="transparent" points="345.5,-10 345.5,-30 365.5,-30 365.5,-10 345.5,-10"/>
<text text-anchor="start" x="369.1732" y="-15.4" font-family="sans-serif" font-size="14.00" fill="#000000"> &#160;Providers</text>
<polygon fill="#fb8072" stroke="transparent" points="441.5,-10 441.5,-30 461.5,-30 461.5,-10 441.5,-10"/>
<text text-anchor="start" x="465.2258" y="-15.4" font-family="sans-serif" font-size="14.00" fill="#000000"> &#160;Exports</text>
<g id="clust1" class="cluster">
<title>cluster_AppModule</title>
<polygon fill="none" stroke="#000000" stroke-dasharray="1,5" points="8,-70 8,-333 559,-333 559,-70 8,-70"/>
</g>
<g id="clust2" class="cluster">
<title>cluster_AppModule_declarations</title>
<polygon fill="none" stroke="#000000" points="16,-143 16,-195 551,-195 551,-143 16,-143"/>
</g>
<g id="clust3" class="cluster">
<title>cluster_AppModule_AppComponent_providers</title>
<polygon fill="none" stroke="#000000" points="389,-78 389,-130 551,-130 551,-78 389,-78"/>
</g>
<g id="clust9" class="cluster">
<title>cluster_AppModule_bootstrap</title>
<polygon fill="none" stroke="#000000" points="219,-273 219,-325 343,-325 343,-273 219,-273"/>
</g>
<!-- AppComponent -->
<g id="node1" class="node">
<title>AppComponent</title>
<polygon fill="#ffffb3" stroke="#000000" points="542.9399,-187 437.0601,-187 437.0601,-151 542.9399,-151 542.9399,-187"/>
<text text-anchor="middle" x="490" y="-164.8" font-family="Times,serif" font-size="14.00" fill="#000000">AppComponent</text>
</g>
<!-- AppModule -->
<g id="node5" class="node">
<title>AppModule</title>
<polygon fill="#8dd3c7" stroke="#000000" points="322.6571,-252 319.6571,-256 298.6571,-256 295.6571,-252 239.3429,-252 239.3429,-216 322.6571,-216 322.6571,-252"/>
<text text-anchor="middle" x="281" y="-229.8" font-family="Times,serif" font-size="14.00" fill="#000000">AppModule</text>
</g>
<!-- AppComponent&#45;&gt;AppModule -->
<g id="edge1" class="edge">
<title>AppComponent&#45;&gt;AppModule</title>
<path fill="none" stroke="#000000" d="M490,-187.1061C490,-206.3391 490,-234 490,-234 490,-234 332.792,-234 332.792,-234"/>
<polygon fill="#000000" stroke="#000000" points="332.792,-230.5001 322.792,-234 332.7919,-237.5001 332.792,-230.5001"/>
</g>
<!-- HeaderComponent -->
<g id="node2" class="node">
<title>HeaderComponent</title>
<polygon fill="#ffffb3" stroke="#000000" points="418.7437,-187 297.2563,-187 297.2563,-151 418.7437,-151 418.7437,-187"/>
<text text-anchor="middle" x="358" y="-164.8" font-family="Times,serif" font-size="14.00" fill="#000000">HeaderComponent</text>
</g>
<!-- HeaderComponent&#45;&gt;AppModule -->
<g id="edge3" class="edge">
<title>HeaderComponent&#45;&gt;AppModule</title>
<path fill="none" stroke="#000000" d="M309.9783,-187.1061C309.9783,-187.1061 309.9783,-205.991 309.9783,-205.991"/>
<polygon fill="#000000" stroke="#000000" points="306.4783,-205.9909 309.9783,-215.991 313.4783,-205.991 306.4783,-205.9909"/>
</g>
<!-- WeatherListComponent -->
<g id="node3" class="node">
<title>WeatherListComponent</title>
<polygon fill="#ffffb3" stroke="#000000" points="279.0212,-187 128.9788,-187 128.9788,-151 279.0212,-151 279.0212,-187"/>
<text text-anchor="middle" x="204" y="-164.8" font-family="Times,serif" font-size="14.00" fill="#000000">WeatherListComponent</text>
</g>
<!-- WeatherListComponent&#45;&gt;AppModule -->
<g id="edge4" class="edge">
<title>WeatherListComponent&#45;&gt;AppModule</title>
<path fill="none" stroke="#000000" d="M259.216,-187.1061C259.216,-187.1061 259.216,-205.991 259.216,-205.991"/>
<polygon fill="#000000" stroke="#000000" points="255.7161,-205.9909 259.216,-215.991 262.7161,-205.991 255.7161,-205.9909"/>
</g>
<!-- MyDatePipe -->
<g id="node4" class="node">
<title>MyDatePipe</title>
<polygon fill="#ffffb3" stroke="#000000" points="110.2591,-187 23.7409,-187 23.7409,-151 110.2591,-151 110.2591,-187"/>
<text text-anchor="middle" x="67" y="-164.8" font-family="Times,serif" font-size="14.00" fill="#000000">MyDatePipe</text>
</g>
<!-- MyDatePipe&#45;&gt;AppModule -->
<g id="edge5" class="edge">
<title>MyDatePipe&#45;&gt;AppModule</title>
<path fill="none" stroke="#000000" d="M67,-187.1061C67,-206.3391 67,-234 67,-234 67,-234 229.2306,-234 229.2306,-234"/>
<polygon fill="#000000" stroke="#000000" points="229.2307,-237.5001 239.2306,-234 229.2306,-230.5001 229.2307,-237.5001"/>
</g>
<!-- AppComponent  -->
<g id="node7" class="node">
<title>AppComponent </title>
<polygon fill="#80b1d3" stroke="#000000" points="335.439,-317 226.561,-317 226.561,-281 335.439,-281 335.439,-317"/>
<text text-anchor="middle" x="281" y="-294.8" font-family="Times,serif" font-size="14.00" fill="#000000">AppComponent </text>
</g>
<!-- AppModule&#45;&gt;AppComponent  -->
<g id="edge6" class="edge">
<title>AppModule&#45;&gt;AppComponent </title>
<path fill="none" stroke="#000000" stroke-dasharray="1,5" d="M281,-252.1061C281,-252.1061 281,-270.991 281,-270.991"/>
<polygon fill="#000000" stroke="#000000" points="277.5001,-270.9909 281,-280.991 284.5001,-270.991 277.5001,-270.9909"/>
</g>
<!-- WeatherService -->
<g id="node6" class="node">
<title>WeatherService</title>
<ellipse fill="#fdb462" stroke="#000000" cx="470" cy="-104" rx="72.8889" ry="18"/>
<text text-anchor="middle" x="470" y="-99.8" font-family="Times,serif" font-size="14.00" fill="#000000">WeatherService</text>
</g>
<!-- WeatherService&#45;&gt;AppComponent -->
<g id="edge2" class="edge">
<title>WeatherService&#45;&gt;AppComponent</title>
<path fill="none" stroke="#000000" d="M489.9873,-121.4188C489.9873,-121.4188 489.9873,-140.6234 489.9873,-140.6234"/>
<polygon fill="#000000" stroke="#000000" points="486.4874,-140.6234 489.9873,-150.6234 493.4874,-140.6234 486.4874,-140.6234"/>
</g>
</g>
</svg>
